HIERARCHY
ROOT hip
{
  OFFSET 0 0 0
  CHANNELS 6 Xposition Yposition Zposition Zrotation Yrotation Xrotation
  JOINT abdomen
  {
    OFFSET 0 20.6881 -0.73152
    CHANNELS 3 Zrotation Xrotation Yrotation
    JOINT chest
    {
      OFFSET 0 11.7043 -0.48768
      CHANNELS 3 Zrotation Xrotation Yrotation
      JOINT neck
      {
        OFFSET 0 22.1894 -2.19456
        CHANNELS 3 Zrotation Xrotation Yrotation
        JOINT head
        {
          OFFSET -0.24384 7.07133 1.2192
          CHANNELS 3 Zrotation Xrotation Yrotation
          JOINT leftEye
          {
            OFFSET 4.14528 8.04674 8.04672
            CHANNELS 3 Zrotation Xrotation Yrotation
            End Site
            {
              OFFSET 1 0 0
            }
          }
          JOINT rightEye
          {
            OFFSET -3.6576 8.04674 8.04672
            CHANNELS 3 Zrotation Xrotation Yrotation
            End Site
            {
              OFFSET 1 0 0
            }
          }
        }
      }
      JOINT rCollar
      {
        OFFSET -2.68224 19.2634 -4.8768
        CHANNELS 3 Zrotation Xrotation Yrotation
        JOINT rShldr
        {
          OFFSET -8.77824 -1.95073 1.46304
          CHANNELS 3 Zrotation Xrotation Yrotation
          JOINT rForeArm
          {
            OFFSET -28.1742 -1.7115 0.48768
            CHANNELS 3 Zrotation Xrotation Yrotation
            JOINT rHand
            {
              OFFSET -22.5879 0.773209 7.07136
              CHANNELS 3 Zrotation Xrotation Yrotation
              JOINT rThumb1
              {
                OFFSET -1.2192 -0.487915 3.41376
                CHANNELS 3 Zrotation Xrotation Yrotation
                JOINT rThumb2
                {
                  OFFSET -3.37035 -0.52449 3.41376
                  CHANNELS 3 Zrotation Xrotation Yrotation
                  End Site
                  {
                    OFFSET -1.78271 -1.18214 1.43049
                  }
                }
              }
              JOINT rIndex1
              {
                OFFSET -7.75947 0.938293 5.60832
                CHANNELS 3 Zrotation Xrotation Yrotation
                JOINT rIndex2
                {
                  OFFSET -2.54057 -0.884171 1.56538
                  CHANNELS 3 Zrotation Xrotation Yrotation
                  End Site
                  {
                    OFFSET -1.62519 -0.234802 1.16502
                  }
                }
              }
              JOINT rMid1
              {
                OFFSET -8.24714 1.18213 3.41376
                CHANNELS 3 Zrotation Xrotation Yrotation
                JOINT rMid2
                {
                  OFFSET -3.10165 -0.590103 1.0647
                  CHANNELS 3 Zrotation Xrotation Yrotation
                  End Site
                  {
                    OFFSET -2.48547 -0.328903 0.83742
                  }
                }
              }
              JOINT rRing1
              {
                OFFSET -8.82822 0.546677 1.51678
                CHANNELS 3 Zrotation Xrotation Yrotation
                JOINT rRing2
                {
                  OFFSET -2.60934 -0.819778 -0.0198488
                  CHANNELS 3 Zrotation Xrotation Yrotation
                  End Site
                  {
                    OFFSET -2.33842 -0.294052 0.168128
                  }
                }
              }
              JOINT rPinky1
              {
                OFFSET -8.27202 -0.0477905 -0.4584
                CHANNELS 3 Zrotation Xrotation Yrotation
                JOINT rPinky2
                {
                  OFFSET -1.82734 -0.647385 -0.700984
                  CHANNELS 3 Zrotation Xrotation Yrotation
                  End Site
                  {
                    OFFSET -1.69225 -0.51767 -0.607171
                  }
                }
              }
            }
          }
        }
      }
      JOINT lCollar
      {
        OFFSET 2.68224 19.2634 -4.8768
        CHANNELS 3 Zrotation Xrotation Yrotation
        JOINT lShldr
        {
          OFFSET 8.77824 -1.95073 1.46304
          CHANNELS 3 Zrotation Xrotation Yrotation
          JOINT lForeArm
          {
            OFFSET 28.1742 -1.7115 0.48768
            CHANNELS 3 Zrotation Xrotation Yrotation
            JOINT lHand
            {
              OFFSET 22.5879 0.773209 7.07136
              CHANNELS 3 Zrotation Xrotation Yrotation
              JOINT lThumb1
              {
                OFFSET 1.2192 -0.487915 3.41376
                CHANNELS 3 Zrotation Xrotation Yrotation
                JOINT lThumb2
                {
                  OFFSET 3.37035 -0.52449 3.41376
                  CHANNELS 3 Zrotation Xrotation Yrotation
                  End Site
                  {
                    OFFSET 1.78271 -1.18214 1.43049
                  }
                }
              }
              JOINT lIndex1
              {
                OFFSET 7.75947 0.938293 5.60832
                CHANNELS 3 Zrotation Xrotation Yrotation
                JOINT lIndex2
                {
                  OFFSET 2.54057 -0.884171 1.56538
                  CHANNELS 3 Zrotation Xrotation Yrotation
                  End Site
                  {
                    OFFSET 1.62519 -0.234802 1.16502
                  }
                }
              }
              JOINT lMid1
              {
                OFFSET 8.24714 1.18213 3.41376
                CHANNELS 3 Zrotation Xrotation Yrotation
                JOINT lMid2
                {
                  OFFSET 3.10165 -0.590103 1.0647
                  CHANNELS 3 Zrotation Xrotation Yrotation
                  End Site
                  {
                    OFFSET 2.48547 -0.328903 0.83742
                  }
                }
              }
              JOINT lRing1
              {
                OFFSET 8.82822 0.546677 1.51678
                CHANNELS 3 Zrotation Xrotation Yrotation
                JOINT lRing2
                {
                  OFFSET 2.60934 -0.819778 -0.0198488
                  CHANNELS 3 Zrotation Xrotation Yrotation
                  End Site
                  {
                    OFFSET 2.33842 -0.294052 0.168128
                  }
                }
              }
              JOINT lPinky1
              {
                OFFSET 8.27202 -0.0477905 -0.4584
                CHANNELS 3 Zrotation Xrotation Yrotation
                JOINT lPinky2
                {
                  OFFSET 1.82734 -0.647385 -0.700984
                  CHANNELS 3 Zrotation Xrotation Yrotation
                  End Site
                  {
                    OFFSET 1.69225 -0.51767 -0.607171
                  }
                }
              }
            }
          }
        }
      }
    }
  }
  JOINT rButtock
  {
    OFFSET -8.77824 4.35084 1.2192
    CHANNELS 3 Zrotation Xrotation Yrotation
    JOINT rThigh
    {
      OFFSET 0 -1.70687 -2.19456
      CHANNELS 3 Zrotation Xrotation Yrotation
      JOINT rShin
      {
        OFFSET 0 -36.8199 0.73152
        CHANNELS 3 Zrotation Xrotation Yrotation
        JOINT rFoot
        {
          OFFSET 0.73152 -45.1104 -5.12064
          CHANNELS 3 Zrotation Xrotation Yrotation
          End Site
          {
            OFFSET -1.1221 -3.69964 12.103
          }
        }
      }
    }
  }
  JOINT lButtock
  {
    OFFSET 8.77824 4.35084 1.2192
    CHANNELS 3 Zrotation Xrotation Yrotation
    JOINT lThigh
    {
      OFFSET 0 -1.70687 -2.19456
      CHANNELS 3 Zrotation Xrotation Yrotation
      JOINT lShin
      {
        OFFSET 0 -36.8199 0.73152
        CHANNELS 3 Zrotation Xrotation Yrotation
        JOINT lFoot
        {
          OFFSET -0.73152 -45.1104 -5.12064
          CHANNELS 3 Zrotation Xrotation Yrotation
          End Site
          {
            OFFSET 1.1221 -3.69964 12.103
          }
        }
      }
    }
  }
}
MOTION
Frames:	4
Frame Time:	0.00833333
61.7602 106.372 114.707 -178.907 181.631 184.579 1.18292 3.652 -5.87997 7.54082 -9.40139 -0.941401 -14.1124 22.8102 -23.2795 22.0011 -34.3001 -41.3285 -0.0 0.0 0.0 -0.0 0.0 0.0 2.79582e-16 5.76444e-14 1.11816e-14 -32.7979 69.8554 100.502 -28.0349 -30.8238 68.5652 -0.00128255 -1.02255 -0.143725 6.73864e-11 7.00628e-10 -4.95779e-10 1.16271e-10 1.21336e-09 -8.58896e-10 6.74067e-11 7.00645e-10 -4.95801e-10 7.73091 5.47488 0.417314 6.73873e-11 7.0062e-10 -4.95785e-10 2.90554 0.965183 0.102902 6.73896e-11 7.00619e-10 -4.95782e-10 10.2786 0.731801 0.0259123 6.73797e-11 7.00621e-10 -4.95769e-10 2.22167 -0.733487 -0.20892 3.16757e-16 5.76507e-14 1.10822e-14 -102.551 47.5162 35.3209 17.567 -10.2285 -33.0558 0.329623 16.1183 -2.32763 4.25622e-11 -3.98535e-10 -1.46258e-10 7.26455e-11 -6.92276e-10 -2.53591e-10 4.25558e-11 -3.98534e-10 -1.46245e-10 -7.73091 5.47488 -0.417314 4.25647e-11 -3.98533e-10 -1.46248e-10 -2.90554 0.965183 -0.102902 4.25589e-11 -3.98532e-10 -1.46255e-10 -10.2786 0.731801 -0.0259123 4.25703e-11 -3.98528e-10 -1.46261e-10 -2.22167 -0.733487 0.20892 -2.03217e-16 0.0 -3.88251e-19 7.10517 -18.7726 8.82718 -0.0260176 27.0096 0.0197603 10.4389 31.0853 -21.6171 2.03217e-16 0.0 3.88251e-19 -1.5669 -17.1787 -4.9011 0.264095 31.1134 -0.30511 -1.12649 34.0471 2.7037
61.6005 106.76 114.526 -178.54 188.118 184.26 0.637381 4.0594 -5.06938 7.6714 -9.86014 -0.677587 -14.2093 22.7793 -23.1283 22.3094 -33.9233 -40.9977 -0.0 0.0 0.0 -0.0 0.0 0.0 -1.21781e-14 2.6059e-14 -2.53204e-13 -34.423 69.6276 103.547 -27.9946 -30.5822 68.1817 -0.00122479 -0.788697 -0.110865 -8.2211e-10 -4.05858e-11 -8.61723e-10 -1.42013e-09 -8.10804e-11 -1.48718e-09 -8.22094e-10 -4.05704e-11 -8.61741e-10 7.73091 5.47488 0.417314 -8.22111e-10 -4.05975e-11 -8.61725e-10 2.90554 0.965183 0.102902 -8.22107e-10 -4.0593e-11 -8.61724e-10 10.2786 0.731801 0.0259123 -8.22116e-10 -4.05913e-11 -8.61712e-10 2.22167 -0.733487 -0.20892 -1.21828e-14 2.60627e-14 -2.53336e-13 -105.158 47.1285 38.2968 18.0023 -10.6968 -34.0038 0.304991 15.4908 -2.23236 -6.53848e-10 -1.29567e-10 -5.04206e-10 -1.13411e-09 -2.23136e-10 -8.65813e-10 -6.53854e-10 -1.29566e-10 -5.04193e-10 -7.73091 5.47488 -0.417314 -6.53846e-10 -1.29565e-10 -5.04198e-10 -2.90554 0.965183 -0.102902 -6.53851e-10 -1.29564e-10 -5.04204e-10 -10.2786 0.731801 -0.0259123 -6.5384e-10 -1.2956e-10 -5.04212e-10 -2.22167 -0.733487 0.20892 -2.03217e-16 0.0 -3.88251e-19 6.46384 -18.8575 8.42844 -0.0358017 27.2405 0.0131424 10.5298 30.9894 -21.9809 2.03217e-16 0.0 3.88251e-19 -1.76521 -16.8659 -4.89613 0.2501 30.1881 -0.320495 -0.341224 33.781 1.07561
61.5348 107.027 114.199 -178.482 194.618 184.288 0.258293 4.48815 -4.23766 7.85337 -10.5365 -0.387394 -14.4583 22.6503 -22.9066 22.7848 -33.3393 -40.509 -0.0 0.0 0.0 -0.0 0.0 0.0 -2.2707e-14 -5.95086e-15 -5.52758e-13 -36.2562 69.7018 106.636 -27.9558 -30.3564 67.8208 -0.00102221 -0.690417 -0.0970496 -1.88125e-09 -1.06244e-09 -1.19026e-09 -3.25019e-09 -1.86789e-09 -2.04933e-09 -1.88124e-09 -1.06243e-09 -1.19027e-09 7.73091 5.47488 0.417314 -1.88126e-09 -1.06246e-09 -1.19026e-09 2.90554 0.965183 0.102902 -1.88125e-09 -1.06245e-09 -1.19026e-09 10.2786 0.731801 0.0259123 -1.88126e-09 -1.06245e-09 -1.19025e-09 2.22167 -0.733487 -0.20892 -2.27696e-14 -5.95192e-15 -5.52957e-13 -107.83 46.5768 41.3861 18.4912 -11.2338 -35.1073 0.277591 14.6839 -2.11131 -1.85469e-09 1.81754e-10 -1.04686e-09 -3.21463e-09 3.22371e-10 -1.79224e-09 -1.8547e-09 1.81755e-10 -1.04685e-09 -7.73091 5.47488 -0.417314 -1.85469e-09 1.81755e-10 -1.04686e-09 -2.90554 0.965183 -0.102902 -1.85469e-09 1.81755e-10 -1.04686e-09 -10.2786 0.731801 -0.0259123 -1.85468e-09 1.81759e-10 -1.04687e-09 -2.22167 -0.733487 0.20892 -2.03217e-16 0.0 -3.88251e-19 6.07531 -19.0554 8.28957 -0.0435095 27.3691 0.0120109 10.6775 30.3462 -22.7593 2.03217e-16 0.0 3.88251e-19 -1.75469 -16.7246 -4.71842 0.235138 29.4114 -0.356715 0.759995 33.361 -1.28593
61.6143 107.214 113.788 -178.508 200.207 184.584 0.0423682 4.82284 -3.45495 7.99302 -11.1865 -0.115547 -14.7335 22.4491 -22.6637 23.2787 -32.7272 -39.9783 -0.0 0.0 0.0 -0.0 0.0 0.0 -2.42836e-14 -3.11087e-14 -7.82235e-13 -37.872 69.9137 109.361 -27.9168 -30.1379 67.47 -0.000731634 -0.674972 -0.0948706 -2.71242e-09 -2.41381e-09 -1.34793e-09 -4.68648e-09 -4.21865e-09 -2.31717e-09 -2.71241e-09 -2.4138e-09 -1.34793e-09 7.73091 5.47488 0.417314 -2.71242e-09 -2.41383e-09 -1.34792e-09 2.90554 0.965183 0.102902 -2.71241e-09 -2.41381e-09 -1.34793e-09 10.2786 0.731801 0.0259123 -2.71242e-09 -2.41381e-09 -1.34792e-09 2.22167 -0.733487 -0.20892 -2.44036e-14 -3.11148e-14 -7.82499e-13 -110.341 45.9329 44.357 18.9856 -11.7917 -36.2591 0.239055 13.6001 -1.94942 -2.86794e-09 4.27821e-10 -1.53627e-09 -4.97048e-09 7.54617e-10 -2.62761e-09 -2.86794e-09 4.27821e-10 -1.53626e-09 -7.73091 5.47488 -0.417314 -2.86794e-09 4.27821e-10 -1.53627e-09 -2.90554 0.965183 -0.102902 -2.86794e-09 4.27821e-10 -1.53627e-09 -10.2786 0.731801 -0.0259123 -2.86793e-09 4.27824e-10 -1.53629e-09 -2.22167 -0.733487 0.20892 -2.03217e-16 0.0 -3.88251e-19 5.83595 -19.3418 8.17634 -0.0493902 27.4639 0.0151785 10.8471 29.4068 -23.7992 2.03217e-16 0.0 3.88251e-19 -1.636 -16.7404 -4.62432 0.220717 28.7386 -0.394057 1.79058 32.8516 -3.57035
